<svg width="44" height="36" viewBox="0 0 44 36" fill="none" xmlns="http://www.w3.org/2000/svg">
<path d="M0.100006 36V31.4C0.100006 30.2667 0.366673 29.325 0.900006 28.575C1.43334 27.825 2.18334 27.2167 3.15001 26.75C4.95001 25.8833 6.87501 25.1667 8.92501 24.6C10.975 24.0333 13.3 23.75 15.9 23.75C18.5 23.75 20.825 24.0333 22.875 24.6C24.925 25.1667 26.85 25.8833 28.65 26.75C29.6167 27.2167 30.3667 27.825 30.9 28.575C31.4333 29.325 31.7 30.2667 31.7 31.4V36H0.100006ZM3.10001 33H28.7V31.4C28.7 30.9 28.5583 30.4917 28.275 30.175C27.9917 29.8583 27.65 29.6167 27.25 29.45C25.8167 28.8167 24.2167 28.2083 22.45 27.625C20.6833 27.0417 18.5 26.75 15.9 26.75C13.3 26.75 11.1167 27.0417 9.35001 27.625C7.58334 28.2083 5.98334 28.8167 4.55001 29.45C4.15001 29.6167 3.80834 29.8583 3.52501 30.175C3.24167 30.4917 3.10001 30.9 3.10001 31.4V33ZM15.9 20.75C13.7 20.75 11.9 20.0333 10.5 18.6C9.10001 17.1667 8.40001 15.3833 8.40001 13.25H7.90001C7.63334 13.25 7.40001 13.15 7.20001 12.95C7.00001 12.75 6.90001 12.5167 6.90001 12.25C6.90001 11.9833 7.00001 11.75 7.20001 11.55C7.40001 11.35 7.63334 11.25 7.90001 11.25H8.40001C8.40001 9.91667 8.73334 8.71667 9.40001 7.65C10.0667 6.58333 10.9333 5.71667 12 5.05V7C12 7.2 12.075 7.375 12.225 7.525C12.375 7.675 12.55 7.75 12.75 7.75C12.9833 7.75 13.1667 7.675 13.3 7.525C13.4333 7.375 13.5 7.2 13.5 7V4.4C13.7667 4.33333 14.1333 4.275 14.6 4.225C15.0667 4.175 15.5167 4.15 15.95 4.15C16.3833 4.15 16.8333 4.175 17.3 4.225C17.7667 4.275 18.1333 4.33333 18.4 4.4V7C18.4 7.2 18.4667 7.375 18.6 7.525C18.7333 7.675 18.9167 7.75 19.15 7.75C19.35 7.75 19.525 7.675 19.675 7.525C19.825 7.375 19.9 7.2 19.9 7V5.05C20.9667 5.71667 21.8167 6.58333 22.45 7.65C23.0833 8.71667 23.4 9.91667 23.4 11.25H23.9C24.1667 11.25 24.4 11.35 24.6 11.55C24.8 11.75 24.9 11.9833 24.9 12.25C24.9 12.5167 24.8 12.75 24.6 12.95C24.4 13.15 24.1667 13.25 23.9 13.25H23.4C23.4 15.3833 22.7 17.1667 21.3 18.6C19.9 20.0333 18.1 20.75 15.9 20.75ZM15.9 17.75C17.3 17.75 18.4 17.3333 19.2 16.5C20 15.6667 20.4 14.5833 20.4 13.25H11.4C11.4 14.5833 11.8 15.6667 12.6 16.5C13.4 17.3333 14.5 17.75 15.9 17.75ZM31 23.95L30.9 22.5C30.6667 22.3667 30.425 22.2167 30.175 22.05C29.925 21.8833 29.7 21.7167 29.5 21.55L28.2 22.25L27.1 20.65L28.4 19.7C28.3333 19.5667 28.3 19.4417 28.3 19.325V18.575C28.3 18.4583 28.3333 18.3333 28.4 18.2L27.1 17.25L28.2 15.65L29.5 16.35L30.2 15.85C30.4333 15.6833 30.6667 15.5333 30.9 15.4L31 13.95H33L33.1 15.4C33.3333 15.5333 33.5667 15.6833 33.8 15.85L34.5 16.35L35.8 15.65L36.9 17.25L35.6 18.2C35.6667 18.3333 35.7 18.4583 35.7 18.575V19.325C35.7 19.4417 35.6667 19.5667 35.6 19.7L36.9 20.65L35.8 22.25L34.5 21.55C34.3 21.7167 34.075 21.8833 33.825 22.05C33.575 22.2167 33.3333 22.3667 33.1 22.5L33 23.95H31ZM32 20.85C32.5333 20.85 32.9833 20.6667 33.35 20.3C33.7167 19.9333 33.9 19.4833 33.9 18.95C33.9 18.4167 33.7167 17.9667 33.35 17.6C32.9833 17.2333 32.5333 17.05 32 17.05C31.4667 17.05 31.0167 17.2333 30.65 17.6C30.2833 17.9667 30.1 18.4167 30.1 18.95C30.1 19.4833 30.2833 19.9333 30.65 20.3C31.0167 20.6667 31.4667 20.85 32 20.85V20.85ZM36.4 13.1L35.95 11.35C35.6167 11.2167 35.275 11.0333 34.925 10.8C34.575 10.5667 34.2833 10.3167 34.05 10.05L31.85 10.85L30.85 9.1L32.6 7.7C32.5333 7.53333 32.475 7.35 32.425 7.15C32.375 6.95 32.35 6.75 32.35 6.55C32.35 6.35 32.375 6.15 32.425 5.95C32.475 5.75 32.5333 5.56667 32.6 5.4L30.85 4L31.85 2.25L34.05 3.05C34.2833 2.78333 34.575 2.525 34.925 2.275C35.275 2.025 35.6167 1.85 35.95 1.75L36.4 0H38.3L38.75 1.75C39.0833 1.85 39.425 2.025 39.775 2.275C40.125 2.525 40.4167 2.78333 40.65 3.05L42.85 2.25L43.85 4L42.1 5.4C42.1667 5.56667 42.225 5.75 42.275 5.95C42.325 6.15 42.35 6.35 42.35 6.55C42.35 6.75 42.325 6.95 42.275 7.15C42.225 7.35 42.1667 7.53333 42.1 7.7L43.85 9.1L42.85 10.85L40.65 10.05C40.4167 10.3167 40.125 10.5667 39.775 10.8C39.425 11.0333 39.0833 11.2167 38.75 11.35L38.3 13.1H36.4ZM37.35 9.45C38.1833 9.45 38.875 9.175 39.425 8.625C39.975 8.075 40.25 7.38333 40.25 6.55C40.25 5.71667 39.975 5.025 39.425 4.475C38.875 3.925 38.1833 3.65 37.35 3.65C36.5167 3.65 35.825 3.925 35.275 4.475C34.725 5.025 34.45 5.71667 34.45 6.55C34.45 7.38333 34.725 8.075 35.275 8.625C35.825 9.175 36.5167 9.45 37.35 9.45V9.45ZM3.10001 33H28.7H3.10001Z" fill="#AEA16A"/>
</svg>
