<svg width="41" height="31" viewBox="0 0 41 31" fill="none" xmlns="http://www.w3.org/2000/svg">
<path d="M2.936 30.04L2.6 29.8L2.072 28.36C6.2 26.6 9.384 24.232 11.624 21.256C13.896 18.248 15.032 14.856 15.032 11.08C15.032 8.616 14.52 6.664 13.496 5.224C12.472 3.784 11.064 3.064 9.272 3.064C7.704 3.064 6.472 3.576 5.576 4.6C4.68 5.624 4.232 7.032 4.232 8.824C4.232 9.944 4.488 10.984 5 11.944C5.544 12.872 6.248 13.624 7.112 14.2C8.008 14.744 8.984 15.016 10.04 15.016C10.872 15.016 11.784 14.824 12.776 14.44C13.8 14.024 14.648 13.512 15.32 12.904L14.984 15.688L14.312 15.352C13.096 16.12 12.008 16.728 11.048 17.176C10.088 17.624 9.4 17.848 8.984 17.848C7.416 17.848 6.008 17.512 4.76 16.84C3.512 16.136 2.52 15.192 1.784 14.008C1.048 12.792 0.68 11.448 0.68 9.976C0.68 8.216 1.096 6.648 1.928 5.272C2.76 3.896 3.896 2.808 5.336 2.008C6.808 1.176 8.44 0.76 10.232 0.76C11.928 0.76 13.416 1.192 14.696 2.056C16.008 2.888 17.032 4.056 17.768 5.56C18.504 7.064 18.872 8.808 18.872 10.792C18.872 12.904 18.504 14.936 17.768 16.888C17.064 18.808 16.024 20.6 14.648 22.264C13.272 23.928 11.592 25.416 9.608 26.728C7.656 28.04 5.432 29.144 2.936 30.04ZM24.7798 30.04L24.4438 29.8L23.9158 28.36C28.0438 26.6 31.2278 24.232 33.4678 21.256C35.7398 18.248 36.8758 14.856 36.8758 11.08C36.8758 8.616 36.3638 6.664 35.3398 5.224C34.3158 3.784 32.9078 3.064 31.1158 3.064C29.5478 3.064 28.3158 3.576 27.4198 4.6C26.5238 5.624 26.0758 7.032 26.0758 8.824C26.0758 9.944 26.3318 10.984 26.8438 11.944C27.3878 12.872 28.0918 13.624 28.9558 14.2C29.8518 14.744 30.8278 15.016 31.8838 15.016C32.7158 15.016 33.6278 14.824 34.6198 14.44C35.6438 14.024 36.4918 13.512 37.1638 12.904L36.8278 15.688L36.1558 15.352C34.9398 16.12 33.8518 16.728 32.8918 17.176C31.9318 17.624 31.2438 17.848 30.8278 17.848C29.2598 17.848 27.8518 17.512 26.6038 16.84C25.3558 16.136 24.3638 15.192 23.6278 14.008C22.8918 12.792 22.5238 11.448 22.5238 9.976C22.5238 8.216 22.9398 6.648 23.7718 5.272C24.6038 3.896 25.7398 2.808 27.1797 2.008C28.6518 1.176 30.2838 0.76 32.0758 0.76C33.7718 0.76 35.2598 1.192 36.5398 2.056C37.8518 2.888 38.8758 4.056 39.6118 5.56C40.3478 7.064 40.7158 8.808 40.7158 10.792C40.7158 12.904 40.3478 14.936 39.6118 16.888C38.9078 18.808 37.8678 20.6 36.4918 22.264C35.1158 23.928 33.4358 25.416 31.4518 26.728C29.4998 28.04 27.2758 29.144 24.7798 30.04Z" fill="#AEA16A"/>
</svg>
