<svg width="38" height="37" viewBox="0 0 38 37" fill="none" xmlns="http://www.w3.org/2000/svg">
<path d="M3.3 37V32.3H9.65L4.35 14.2C3.28333 13.7 2.45 13.025 1.85 12.175C1.25 11.325 0.949997 10.2 0.949997 8.80001C0.949997 7.23334 1.525 5.87501 2.675 4.72501C3.825 3.57501 5.18333 3.00001 6.75 3.00001C8.21666 3.00001 9.43333 3.39167 10.4 4.17501C11.3667 4.95834 12.0167 6.00001 12.35 7.30001H19.65V4.35001C19.65 3.95001 19.8 3.60001 20.1 3.30001C20.4 3.00001 20.75 2.85001 21.15 2.85001C21.5167 2.85001 21.825 2.99167 22.075 3.27501C22.325 3.55834 22.45 3.88334 22.45 4.25001L26.2 0.650006C26.4667 0.38334 26.8083 0.20834 27.225 0.125006C27.6417 0.0416729 28.0667 0.100006 28.5 0.300006L36.4 4.10001C36.7 4.26667 36.9083 4.50001 37.025 4.80001C37.1417 5.10001 37.1167 5.41667 36.95 5.75001C36.7833 6.08334 36.5417 6.28334 36.225 6.35001C35.9083 6.41667 35.6 6.36667 35.3 6.20001L27.55 2.45001L22.65 7.40001V10L27.55 15.15L35.3 11.35C35.6333 11.1833 35.95 11.1417 36.25 11.225C36.55 11.3083 36.7833 11.5167 36.95 11.85C37.1167 12.1833 37.1417 12.5167 37.025 12.85C36.9083 13.1833 36.6833 13.4333 36.35 13.6L28.7 17.2C28.2333 17.4333 27.7833 17.5417 27.35 17.525C26.9167 17.5083 26.5333 17.3333 26.2 17L22.45 13.4C22.45 13.8667 22.325 14.2167 22.075 14.45C21.825 14.6833 21.5167 14.8 21.15 14.8C20.75 14.8 20.4 14.65 20.1 14.35C19.8 14.05 19.65 13.7 19.65 13.3V10.3H12.25C12.25 10.7 12.1417 11.1083 11.925 11.525C11.7083 11.9417 11.45 12.2833 11.15 12.55L21.4 32.3H29.3V37H3.3ZM6.75 11.6C7.55 11.6 8.21666 11.3333 8.75 10.8C9.28333 10.2667 9.55 9.60001 9.55 8.80001C9.55 8.00001 9.28333 7.33334 8.75 6.80001C8.21666 6.26667 7.55 6.00001 6.75 6.00001C5.95 6.00001 5.28333 6.26667 4.75 6.80001C4.21666 7.33334 3.95 8.00001 3.95 8.80001C3.95 9.60001 4.21666 10.2667 4.75 10.8C5.28333 11.3333 5.95 11.6 6.75 11.6ZM12.95 32.3H18.05L8.6 13.95C8.5 14.0167 8.33333 14.0833 8.1 14.15C7.86666 14.2167 7.68333 14.2667 7.55 14.3L12.95 32.3Z" fill="#AEA16A"/>
</svg>
